<mxfile host="65bd71144e">
    <diagram id="5CAy903g9543U003dbfl" name="Page-1">
        <mxGraphModel dx="1153" dy="362" grid="1" gridSize="10" guides="1" tooltips="1" connect="1" arrows="1" fold="1" page="1" pageScale="1" pageWidth="850" pageHeight="1100" math="0" shadow="0">
            <root>
                <mxCell id="0"/>
                <mxCell id="1" parent="0"/>
                <mxCell id="2" value="Order States" style="swimlane;startSize=20;horizontal=1;childLayout=flowLayout;flowOrientation=north;resizable=0;interRankCellSpacing=50;containerType=tree;fillColor=#f8cecc;strokeColor=#b85450;" vertex="1" parent="1">
                    <mxGeometry x="20" y="20" width="280" height="370" as="geometry"/>
                </mxCell>
                <mxCell id="12" style="edgeStyle=orthogonalEdgeStyle;html=1;orthogonal=1;noEdgeStyle=1;" edge="1" parent="2" source="3" target="11">
                    <mxGeometry relative="1" as="geometry">
                        <Array as="points">
                            <mxPoint x="141.25" y="92"/>
                            <mxPoint x="40" y="105"/>
                            <mxPoint x="40" y="195"/>
                            <mxPoint x="40" y="195"/>
                            <mxPoint x="40" y="285"/>
                            <mxPoint x="40" y="298"/>
                        </Array>
                    </mxGeometry>
                </mxCell>
                <mxCell id="19" style="edgeStyle=orthogonalEdgeStyle;html=1;entryX=0;entryY=0.5;entryDx=0;entryDy=0;noEdgeStyle=1;orthogonal=1;" edge="1" parent="2" source="3" target="13">
                    <mxGeometry relative="1" as="geometry">
                        <Array as="points">
                            <mxPoint x="208.75" y="92"/>
                            <mxPoint x="260" y="105"/>
                            <mxPoint x="260" y="195"/>
                            <mxPoint x="260" y="195"/>
                            <mxPoint x="260" y="285"/>
                            <mxPoint x="230" y="298"/>
                        </Array>
                    </mxGeometry>
                </mxCell>
                <mxCell id="3" value="Pending" style="whiteSpace=wrap;html=1;" vertex="1" parent="2">
                    <mxGeometry x="125" y="40" width="100" height="40" as="geometry"/>
                </mxCell>
                <mxCell id="16" style="edgeStyle=orthogonalEdgeStyle;html=1;noEdgeStyle=1;orthogonal=1;" edge="1" parent="2" source="4" target="6">
                    <mxGeometry relative="1" as="geometry">
                        <Array as="points">
                            <mxPoint x="165" y="182"/>
                            <mxPoint x="157.5" y="208"/>
                        </Array>
                    </mxGeometry>
                </mxCell>
                <mxCell id="17" style="edgeStyle=orthogonalEdgeStyle;html=1;entryX=0.25;entryY=0;entryDx=0;entryDy=0;noEdgeStyle=1;orthogonal=1;" edge="1" parent="2" source="4" target="13">
                    <mxGeometry relative="1" as="geometry">
                        <Array as="points">
                            <mxPoint x="135" y="184"/>
                            <mxPoint x="100" y="195"/>
                            <mxPoint x="100" y="285"/>
                            <mxPoint x="170" y="298"/>
                        </Array>
                    </mxGeometry>
                </mxCell>
                <mxCell id="18" style="edgeStyle=orthogonalEdgeStyle;html=1;noEdgeStyle=1;orthogonal=1;" edge="1" parent="2" source="4" target="11">
                    <mxGeometry relative="1" as="geometry">
                        <Array as="points">
                            <mxPoint x="105" y="182"/>
                            <mxPoint x="70" y="195"/>
                            <mxPoint x="70" y="285"/>
                            <mxPoint x="70" y="296"/>
                        </Array>
                    </mxGeometry>
                </mxCell>
                <mxCell id="4" value="onHold" style="whiteSpace=wrap;html=1;" vertex="1" parent="2">
                    <mxGeometry x="85" y="130" width="100" height="40" as="geometry"/>
                </mxCell>
                <mxCell id="5" value="" style="html=1;curved=1;noEdgeStyle=1;orthogonal=1;" edge="1" parent="2" source="3" target="4">
                    <mxGeometry relative="1" as="geometry">
                        <Array as="points">
                            <mxPoint x="163.75" y="94"/>
                            <mxPoint x="135" y="118"/>
                        </Array>
                    </mxGeometry>
                </mxCell>
                <mxCell id="14" style="edgeStyle=orthogonalEdgeStyle;html=1;entryX=0;entryY=0.5;entryDx=0;entryDy=0;noEdgeStyle=1;orthogonal=1;" edge="1" parent="2" source="6" target="11">
                    <mxGeometry relative="1" as="geometry">
                        <Array as="points">
                            <mxPoint x="157.5" y="272"/>
                            <mxPoint x="100" y="298"/>
                        </Array>
                    </mxGeometry>
                </mxCell>
                <mxCell id="15" style="edgeStyle=orthogonalEdgeStyle;html=1;entryX=0;entryY=0.5;entryDx=0;entryDy=0;noEdgeStyle=1;orthogonal=1;" edge="1" parent="2" source="6" target="13">
                    <mxGeometry relative="1" as="geometry">
                        <Array as="points">
                            <mxPoint x="202.5" y="272"/>
                            <mxPoint x="200" y="296"/>
                        </Array>
                    </mxGeometry>
                </mxCell>
                <mxCell id="6" value="Assigned" style="whiteSpace=wrap;html=1;" vertex="1" parent="2">
                    <mxGeometry x="130" y="220" width="100" height="40" as="geometry"/>
                </mxCell>
                <mxCell id="7" value="" style="html=1;curved=1;noEdgeStyle=1;orthogonal=1;" edge="1" parent="2" source="3" target="6">
                    <mxGeometry relative="1" as="geometry">
                        <Array as="points">
                            <mxPoint x="186.25" y="94"/>
                            <mxPoint x="215" y="105"/>
                            <mxPoint x="215" y="195"/>
                            <mxPoint x="202.5" y="208"/>
                        </Array>
                    </mxGeometry>
                </mxCell>
                <mxCell id="11" value="Cancelled" style="whiteSpace=wrap;html=1;" vertex="1" parent="2">
                    <mxGeometry x="20" y="310" width="100" height="40" as="geometry"/>
                </mxCell>
                <mxCell id="13" value="Rejected" style="whiteSpace=wrap;html=1;" vertex="1" parent="2">
                    <mxGeometry x="150" y="310" width="100" height="40" as="geometry"/>
                </mxCell>
            </root>
        </mxGraphModel>
    </diagram>
</mxfile>